<svg width="37" height="37" viewBox="0 0 37 37" fill="none" xmlns="http://www.w3.org/2000/svg">
<path d="M31.9414 12.9725V6.14258C31.9414 5.54393 31.4561 5.05859 30.8574 5.05859H24.0275L19.2649 0.315873C18.8418 -0.105291 18.158 -0.105291 17.7351 0.315873L12.9725 5.05859L6.14258 5.05859C5.54393 5.05859 5.05859 5.54393 5.05859 6.14258L5.05859 12.9725L0.315873 17.7351C-0.105291 18.1581 -0.105291 18.842 0.315873 19.2649L5.05859 24.0275V30.8574C5.05859 31.4561 5.54393 31.9414 6.14258 31.9414H12.9725L17.7351 36.6841C17.9466 36.8947 18.2233 37 18.5 37C18.7767 37 19.0534 36.8947 19.2649 36.6841L24.0275 31.9414H30.8574C31.4561 31.9414 31.9414 31.4561 31.9414 30.8574V24.0275L36.6841 19.2649C37.1053 18.842 37.1053 18.1581 36.6841 17.7351L31.9414 12.9725ZM30.0893 22.8149C29.887 23.0181 29.7734 23.2931 29.7734 23.5798V29.7734H23.5798C23.2932 29.7734 23.0181 29.887 22.815 30.0893L18.5 34.3862L14.1851 30.0893C13.9819 29.887 13.7069 29.7734 13.4202 29.7734H7.22656L7.22656 23.5798C7.22656 23.2932 7.11296 23.0181 6.91069 22.815L2.61378 18.5L6.91069 14.1851C7.11296 13.9819 7.22656 13.7069 7.22656 13.4202L7.22656 7.22656L13.4202 7.22656C13.7068 7.22656 13.9819 7.11296 14.185 6.91069L18.5 2.61378L22.815 6.91069C23.0182 7.11296 23.2932 7.22656 23.5798 7.22656L29.7734 7.22656V13.4202C29.7734 13.7068 29.887 13.9819 30.0893 14.185L34.3862 18.5L30.0893 22.8149Z" fill="#DA8856"/>
</svg>
